PathFileType	4	(X/Y/Z)	C:\Users\dbl\Desktop\20210112(1)\20210112\bx_n_10_1802.trc
DataRate	CameraRate	NumFrames	NumMarkers	Units	OrigDataRate	OrigDataStartFrame	OrigNumFrames
50.00	50.00	       5	43	mm	50.00	389	       518
Frame#	Time	Top.Head			R.Acromium			L.Acromium			Sternum			R.ASIS			L.ASIS			V.Sacral			R.Thigh.Upper			R.Thigh.Front			R.Thigh.Rear			R.Knee.Lat			R.Knee.Med			R.Shank.Upper			R.Shank.Front			R.Shank.Rear			R.Ankle.Lat			R.Midfoot.Lat			R.Toe.Lat			R.Toe.Tip			R.Toe.Med			R.Ankle.Med			R.Midfoot.Sup			R.Heel			L.Thigh.Upper			L.Thigh.Front			L.Thigh.Rear			L.Knee.Lat			L.Knee.Med			L.Shank.Upper			L.Shank.Front			L.Shank.Rear			L.Ankle.Lat			L.Midfoot.Lat			L.Toe.Lat			L.Toe.Tip			L.Toe.Med			L.Ankle.Med			L.Midfoot.Sup			L.Heel			origin1 front left			origin2 front right			origin 3 back right			origin 4 back leftt			
		X1	Y1	Z1	X2	Y2	Z2	X3	Y3	Z3	X4	Y4	Z4	X5	Y5	Z5	X6	Y6	Z6	X7	Y7	Z7	X8	Y8	Z8	X9	Y9	Z9	X10	Y10	Z10	X11	Y11	Z11	X12	Y12	Z12	X13	Y13	Z13	X14	Y14	Z14	X15	Y15	Z15	X16	Y16	Z16	X17	Y17	Z17	X18	Y18	Z18	X19	Y19	Z19	X20	Y20	Z20	X21	Y21	Z21	X22	Y22	Z22	X23	Y23	Z23	X24	Y24	Z24	X25	Y25	Z25	X26	Y26	Z26	X27	Y27	Z27	X28	Y28	Z28	X29	Y29	Z29	X30	Y30	Z30	X31	Y31	Z31	X32	Y32	Z32	X33	Y33	Z33	X34	Y34	Z34	X35	Y35	Z35	X36	Y36	Z36	X37	Y37	Z37	X38	Y38	Z38	X39	Y39	Z39	X40	Y40	Z40	X41	Y41	Z41	X42	Y42	Z42	X43	Y43	Z43	

389	7.760	-251.07480	119.15665	1121.37146	-445.35370	-49.85093	909.18085	-464.18829	275.01242	926.52924	-567.18512	108.82180	745.82880	-836.97803	0.71329	784.68408	-807.74036	232.34157	695.34973	-1012.79999	91.02509	707.65466	-792.85852	-82.20489	628.36774	-703.42023	-4.39913	682.45923	-687.27063	-69.68065	587.52332	-553.44409	-39.26218	537.86707	-522.66675	80.57305	533.16595	-539.66608	-35.07723	504.54858	-499.58972	17.41845	456.78690	-612.06354	-40.25445	450.47137	-739.33929	-1.75788	210.92244	-647.79962	-59.40475	168.40720	-608.90582	-69.88412	163.65279	-546.61182	-37.32143	162.06929	-591.38080	27.04827	163.21851	-695.08557	86.54274	205.10130	-663.79785	60.82641	147.87180	-781.87109	59.38944	179.60182	-811.51813	289.44318	599.97559	-718.08521	206.29730	679.83990	-676.39685	283.89554	577.24402	-578.67102	263.55801	537.38232	-509.79626	150.27534	528.84204	-543.65698	261.63641	509.94595	-495.79639	213.04713	471.16962	-604.54480	264.14316	460.49872	-752.20898	219.02669	208.44989	-659.22266	293.96622	160.20583	-625.63525	304.71579	157.88635	-553.47833	258.02890	162.80161	-588.36115	217.89377	171.87947	-693.09576	145.26210	204.49651	-671.42297	170.88725	149.17392	-786.09662	166.38739	189.95107	-528.03528	304.61499	146.75867	-517.63519	-72.76847	142.95370	-875.86078	-78.63017	141.25655	-882.53094	296.11566	144.75290	
390	7.780	-252.54239	118.98717	1131.67578	-446.43054	-50.66169	918.66656	-465.28229	274.92441	935.59485	-567.19806	108.39721	755.28223	-834.26013	0.20288	788.95386	-807.22833	231.78479	701.65784	-1011.85223	90.68759	714.63129	-792.63702	-82.85412	632.75378	-701.99609	-5.88571	685.89801	-687.66986	-70.79155	590.32654	-554.31555	-40.79922	538.47003	-521.34143	80.72093	535.93494	-540.72882	-36.56469	504.87592	-500.50336	15.58176	457.08380	-613.02350	-41.33659	450.73654	-739.55121	-2.04435	210.71931	-647.94855	-59.94431	168.03685	-609.06042	-70.34853	163.28706	-546.41217	-37.42937	161.97086	-591.31268	26.86362	163.36238	-695.00726	86.04007	205.32703	-663.79352	60.78316	147.93089	-781.67108	59.18676	179.64880	-811.25818	288.91614	604.98926	-716.38251	206.02226	683.80078	-676.47040	283.12326	579.90533	-579.27039	263.06497	538.80164	-510.48642	149.67979	529.26532	-545.13196	261.18753	511.32080	-496.69690	212.62671	471.54987	-605.62024	263.48862	461.32602	-752.32001	219.12852	208.46159	-659.23035	294.04822	160.16637	-625.58466	304.76978	157.91966	-553.50201	258.02725	162.87024	-588.43030	217.90723	171.86247	-693.31183	145.48683	204.34538	-671.42615	170.91225	149.24985	-786.19696	166.68512	189.97737	-528.06293	304.55893	146.75464	-517.70520	-73.00304	142.91261	-875.84399	-78.61743	141.26065	-882.54022	296.12640	144.74944	
391	7.800	-254.42923	118.76638	1143.11938	-447.58881	-51.49606	929.03571	-466.47598	274.83072	945.50037	-567.24115	107.94173	765.17072	-831.45203	-0.32151	793.39801	-806.71442	231.23871	708.52246	-1010.95233	90.32653	722.22949	-792.48969	-83.48749	637.54785	-700.50232	-7.43085	689.62860	-688.18231	-71.94930	593.46454	-555.38544	-42.40152	539.33899	-520.78540	80.29689	538.20239	-542.01294	-38.21411	505.44623	-501.64368	13.65662	457.53406	-614.11877	-42.40980	451.14621	-739.80865	-2.35439	210.65962	-648.15302	-60.53580	167.63568	-609.21051	-70.78574	162.90065	-546.20905	-37.55670	161.95456	-591.25909	26.57946	163.51544	-694.80432	85.44276	205.46823	-663.77240	60.70258	148.13068	-781.48901	58.92583	179.67770	-810.97150	288.33499	610.42773	-714.71240	205.75647	688.03851	-676.64130	282.21451	582.88757	-579.87561	262.63321	540.54358	-511.37817	148.89763	529.76910	-546.42102	260.44641	512.56622	-497.76245	212.02321	472.03360	-606.74359	262.81961	462.17172	-752.45203	219.31091	208.50999	-659.26361	294.16611	160.10374	-625.53491	304.83240	157.94162	-553.59003	258.08719	163.08363	-588.50690	217.90407	171.81232	-693.56244	145.72987	204.20624	-671.43567	170.86790	149.42758	-786.38324	167.06529	190.02220	-528.07275	304.46796	146.74530	-517.77350	-73.20616	142.85841	-875.82782	-78.58411	141.24243	-882.54395	296.11978	144.73558	
392	7.820	-256.78845	118.57100	1155.71313	-448.79382	-52.25938	940.11841	-467.81671	274.68753	956.27307	-567.31506	107.45503	775.49768	-828.55328	-0.85954	798.01721	-806.23364	230.71890	715.91040	-1010.12219	89.93965	730.39844	-792.43750	-84.17023	642.79028	-698.98523	-9.02683	693.62512	-688.78772	-73.09645	596.86096	-556.69781	-44.03133	540.46075	-521.94470	78.08160	538.61304	-543.50946	-39.97854	506.21497	-502.90924	11.74433	458.21014	-615.39795	-43.51583	451.63120	-740.08698	-2.71367	210.73866	-648.42999	-61.13154	167.19926	-609.35876	-71.24368	162.49117	-546.03662	-37.78518	162.06735	-591.23029	26.23067	163.68869	-694.54156	84.91689	205.65631	-663.73438	60.55712	148.52013	-781.36554	58.64257	179.72716	-810.71704	287.66940	616.21576	-713.02148	205.54460	692.47681	-676.88525	281.32599	586.21375	-580.49432	262.26105	542.51111	-512.43115	148.00853	530.37549	-547.58582	259.48267	513.67499	-498.96124	211.27898	472.61151	-607.90973	262.13577	463.03107	-752.64233	219.60204	208.57150	-659.33160	294.32056	160.00470	-625.49097	304.90427	157.94768	-553.75885	258.24341	163.50000	-588.59216	217.90468	171.73328	-693.83228	145.94994	204.10674	-671.42700	170.76740	149.73039	-786.66797	167.49963	190.06023	-528.05389	304.39484	146.74327	-517.78766	-73.22408	142.82275	-875.81512	-78.55700	141.21533	-882.53577	296.09320	144.71834	
393	7.840	-259.62595	118.47574	1169.42090	-450.03299	-52.89403	951.80957	-469.37271	274.49753	967.87079	-567.42041	106.93686	786.26654	-825.56335	-1.41088	802.81226	-805.77087	230.20126	723.75391	-1009.29138	89.58541	739.01056	-792.45032	-84.95760	648.47717	-697.50110	-10.69787	697.87866	-689.48779	-74.23184	600.47125	-558.24164	-45.64004	541.71613	-524.62524	74.22422	537.26184	-545.18542	-41.70815	507.07135	-504.29102	9.88975	459.04794	-616.90613	-44.73803	452.16827	-740.33124	-3.13907	210.87622	-648.75415	-61.69903	166.76933	-609.52570	-71.74512	162.07610	-545.96539	-38.12579	162.21732	-591.24475	25.87626	163.89854	-694.33356	84.54401	206.00037	-663.68347	60.35964	149.05411	-781.32410	58.41048	179.85362	-810.46405	286.87079	622.26544	-711.26868	205.37361	697.08337	-677.15204	280.56366	589.85144	-581.18054	261.89871	544.55896	-513.58258	147.09155	531.07349	-548.76801	258.42371	514.74194	-500.26074	210.45911	473.26126	-609.11371	261.43680	463.89948	-752.88837	219.96394	208.59006	-659.42517	294.49023	159.87097	-625.45221	304.98459	157.93594	-553.98206	258.44354	164.02916	-588.66437	217.94009	171.65002	-694.09778	146.10207	204.09235	-671.41797	170.68491	150.10556	-787.04163	167.94931	190.06119	-528.01105	304.37454	146.75214	-517.74316	-73.06191	142.84273	-875.81372	-78.56588	141.21083	-882.52472	296.07541	144.70526	
